<svg width="52" height="52" viewBox="0 0 52 52" fill="none" xmlns="http://www.w3.org/2000/svg">
<path d="M51.02 23.684L28.3157 0.981703C28.0049 0.670494 27.6358 0.423603 27.2296 0.255154C26.8233 0.0867043 26.3878 0 25.9479 0C25.5081 0 25.0726 0.0867043 24.6663 0.255154C24.2601 0.423603 23.891 0.670494 23.5802 0.981703L18.865 5.6968L24.8444 11.6761C25.5474 11.4374 26.3032 11.4001 27.0262 11.5685C27.7493 11.7369 28.4108 12.1043 28.9359 12.6291C29.4639 13.1578 29.8326 13.8242 30 14.5524C30.1674 15.2805 30.1267 16.041 29.8827 16.7472L35.6454 22.5103C36.3514 22.265 37.1123 22.2236 37.8408 22.3909C38.5693 22.5583 39.2359 22.9276 39.7641 23.4565C40.1341 23.8265 40.4276 24.2657 40.6279 24.7491C40.8281 25.2325 40.9312 25.7506 40.9312 26.2739C40.9312 26.7971 40.8281 27.3152 40.6279 27.7986C40.4276 28.282 40.1341 28.7213 39.7641 29.0912C39.0164 29.8385 38.0026 30.2583 36.9455 30.2583C35.8885 30.2583 34.8747 29.8385 34.127 29.0912C33.5705 28.5351 33.1912 27.8266 33.0369 27.0551C32.8826 26.2837 32.9603 25.4838 33.2601 24.7564L27.8839 19.382V33.5279C28.4514 33.8082 28.9439 34.2197 29.3206 34.7282C29.6974 35.2367 29.9476 35.8277 30.0505 36.4522C30.1533 37.0767 30.106 37.7167 29.9122 38.3192C29.7185 38.9217 29.3841 39.4694 28.9365 39.9169C28.5666 40.287 28.1273 40.5805 27.6439 40.7807C27.1605 40.981 26.6424 41.0841 26.1191 41.0841C25.5959 41.0841 25.0778 40.981 24.5943 40.7807C24.1109 40.5805 23.6717 40.287 23.3018 39.9169C22.9316 39.547 22.638 39.1077 22.4377 38.6243C22.2374 38.1408 22.1343 37.6226 22.1343 37.0993C22.1343 36.576 22.2374 36.0578 22.4377 35.5743C22.638 35.0909 22.9316 34.6516 23.3018 34.2817C23.675 33.9075 24.119 33.6115 24.6079 33.4107V19.1347C24.119 18.9351 23.6749 18.6398 23.3018 18.2661C22.743 17.7066 22.3631 16.9936 22.2103 16.2178C22.0576 15.4419 22.1388 14.6382 22.4438 13.9086L16.5482 8.01304L0.981147 23.5776C0.670016 23.8886 0.423206 24.2579 0.254816 24.6643C0.0864263 25.0707 -0.000244141 25.5063 -0.000244141 25.9462C-0.000244141 26.3861 0.0864263 26.8217 0.254816 27.2281C0.423206 27.6345 0.670016 28.0038 0.981147 28.3148L23.686 51.0199C24.3142 51.6475 25.1658 52 26.0538 52C26.9417 52 27.7933 51.6475 28.4215 51.0199L51.02 28.4212C51.6474 27.7926 51.9998 26.9407 51.9998 26.0526C51.9998 25.1645 51.6474 24.3126 51.02 23.684Z" fill="#100F0D"/>
</svg>
