<svg width="57" height="57" viewBox="0 0 57 57" fill="none" xmlns="http://www.w3.org/2000/svg">
<path d="M3.5625 3.5625V53.4375H53.4375V3.5625H3.5625ZM30.7043 42.4605C30.7043 47.3145 27.8543 49.5299 23.7018 49.5299C19.95 49.5299 17.7791 47.5928 16.6658 45.2437L20.4844 42.9393C21.2191 44.2418 21.8871 45.3439 23.5014 45.3439C25.0377 45.3439 26.0174 44.7428 26.0174 42.3937V26.4627H30.7043V42.4605ZM41.7926 49.5299C37.4396 49.5299 34.623 47.4592 33.2537 44.7428L37.0723 42.5385C38.0742 44.175 39.3879 45.3885 41.6924 45.3885C43.6295 45.3885 44.8764 44.4199 44.8764 43.0728C44.8764 41.4697 43.6072 40.902 41.4586 39.9557L40.2896 39.4547C36.9053 38.0186 34.6676 36.2039 34.6676 32.3854C34.6676 28.8674 37.3506 26.1955 41.5254 26.1955C44.509 26.1955 46.6465 27.2309 48.1828 29.9473L44.5312 32.2852C43.7297 30.849 42.8613 30.2812 41.5143 30.2812C40.1449 30.2812 39.2766 31.1496 39.2766 32.2852C39.2766 33.6879 40.1449 34.2557 42.16 35.1352L43.3289 35.6361C47.3145 37.3395 49.5522 39.0873 49.5522 43.0061C49.5522 47.2143 46.2346 49.5299 41.7926 49.5299Z" fill="black"/>
</svg>
