<svg width="52" height="46" viewBox="0 0 52 46" fill="none" xmlns="http://www.w3.org/2000/svg">
<path d="M42.4734 14.9969C41.925 14.8141 41.3766 14.6414 40.8281 14.4789C40.9195 14.1031 41.0008 13.7273 41.082 13.3516C42.3312 7.29843 41.5086 2.43359 38.7359 0.828903C36.0648 -0.704691 31.7078 0.88984 27.3 4.7289C26.8633 5.10468 26.4367 5.50078 26.0305 5.89687C25.7562 5.63281 25.4719 5.36875 25.1875 5.11484C20.5664 1.01172 15.9352 -0.714847 13.1625 0.899997C10.5016 2.44375 9.70937 7.02422 10.8266 12.7523C10.9383 13.3211 11.0602 13.8797 11.2023 14.4484C10.5523 14.6312 9.9125 14.8344 9.31328 15.0477C3.88984 16.9266 0 19.8922 0 22.9594C0 26.1281 4.14375 29.307 9.78047 31.2367C10.2375 31.3891 10.6945 31.5414 11.1617 31.6734C11.0094 32.2828 10.8773 32.882 10.7555 33.5016C9.68906 39.1383 10.5219 43.607 13.1828 45.1406C15.925 46.725 20.5359 45.1 25.025 41.1695C25.3805 40.8547 25.7359 40.5297 26.0914 40.1844C26.5383 40.6211 27.0055 41.0375 27.4727 41.4437C31.8195 45.1812 36.1156 46.6945 38.7664 45.1609C41.5086 43.5766 42.4023 38.7727 41.2445 32.9226C41.1531 32.4758 41.0516 32.0187 40.9398 31.5516C41.2648 31.4602 41.5797 31.3586 41.8945 31.257C47.7547 29.3172 52 26.1789 52 22.9594C52 19.882 47.9984 16.8961 42.4734 14.9969ZM28.732 6.37422C32.5102 3.08359 36.0344 1.79375 37.6391 2.71796C39.3555 3.70312 40.0156 7.68437 38.9391 12.9148C38.868 13.2602 38.7969 13.5953 38.7055 13.9305C36.4508 13.4227 34.1656 13.057 31.8703 12.8539C30.55 10.9648 29.1078 9.15703 27.5438 7.46093C27.9398 7.08515 28.3258 6.72968 28.732 6.37422ZM16.9812 28.2305C17.4992 29.1141 18.0273 29.9976 18.5859 30.8609C17.0016 30.6883 15.4273 30.4344 13.8734 30.0992C14.3203 28.6367 14.8789 27.1234 15.5289 25.5797C15.9961 26.4734 16.4734 27.357 16.9812 28.2305ZM13.9039 16.0125C15.3664 15.6875 16.9203 15.4234 18.5352 15.2203C17.9969 16.0633 17.4688 16.9266 16.9711 17.8C16.4734 18.6633 15.9859 19.5469 15.5289 20.4406C14.8891 18.9273 14.3508 17.4445 13.9039 16.0125ZM16.6867 23.0102C17.357 21.6086 18.0883 20.2375 18.8602 18.8867C19.632 17.5359 20.4648 16.2258 21.3383 14.9359C22.8617 14.8242 24.4156 14.7633 26 14.7633C27.5844 14.7633 29.1484 14.8242 30.6617 14.9359C31.525 16.2156 32.3477 17.5258 33.1297 18.8664C33.9117 20.207 34.643 21.5781 35.3336 22.9695C34.6531 24.3711 33.9219 25.7523 33.1398 27.1133C32.368 28.4641 31.5453 29.7742 30.682 31.0742C29.1688 31.1859 27.5945 31.2367 26 31.2367C24.4055 31.2367 22.8617 31.1859 21.3687 31.0945C20.4852 29.8047 19.6523 28.4844 18.8703 27.1336C18.0883 25.7828 17.3672 24.4117 16.6867 23.0102ZM35.0289 28.2101C35.5469 27.3164 36.0344 26.4125 36.5117 25.4984C37.1617 26.9711 37.7305 28.4641 38.2281 29.9976C36.6539 30.3531 35.0594 30.6273 33.4547 30.8101C34.0031 29.957 34.5211 29.0836 35.0289 28.2101ZM36.4914 20.4406C36.0141 19.5469 35.5266 18.6531 35.0187 17.7797C34.5211 16.9164 34.0031 16.0633 33.4648 15.2203C35.1 15.4234 36.6641 15.6976 38.1266 16.0328C37.6594 17.5359 37.1109 18.9984 36.4914 20.4406ZM26.0203 9.01484C27.0867 10.1727 28.0922 11.3914 29.0266 12.6508C27.0156 12.5594 24.9945 12.5594 22.9836 12.6508C23.9789 11.3406 25.0047 10.1219 26.0203 9.01484ZM14.2391 2.78906C15.9453 1.79375 19.7336 3.21562 23.725 6.75C23.9789 6.97343 24.2328 7.21718 24.4969 7.46093C22.9227 9.15703 21.4703 10.9648 20.1398 12.8539C17.8445 13.057 15.5695 13.4125 13.3148 13.9102C13.1828 13.3922 13.0711 12.8641 12.9594 12.3359C12.0047 7.42031 12.6344 3.71328 14.2391 2.78906ZM11.7508 29.5609C11.3242 29.4391 10.9078 29.307 10.4914 29.1648C8.32812 28.4844 5.87031 27.4078 4.09297 25.9961C3.06719 25.2852 2.37656 24.1883 2.18359 22.9594C2.18359 21.1008 5.39297 18.7242 10.0242 17.1094C10.6031 16.9062 11.1922 16.7234 11.7812 16.5508C12.4719 18.7547 13.3047 20.918 14.2695 23.0102C13.2945 25.1328 12.4516 27.3266 11.7508 29.5609ZM23.593 39.5141C21.9172 41.0476 19.9773 42.2664 17.8648 43.0992C16.7375 43.6375 15.4375 43.6883 14.2797 43.2312C12.6648 42.2969 11.9945 38.7117 12.9086 33.8875C13.0203 33.3187 13.1422 32.75 13.2844 32.1914C15.5594 32.6789 17.8547 33.0141 20.1805 33.1867C21.5211 35.0859 22.9937 36.9039 24.568 38.6101C24.243 38.925 23.918 39.2297 23.593 39.5141ZM26.0812 37.0461C25.0453 35.9289 24.0094 34.6898 23.0039 33.3594C23.9789 33.4 24.9844 33.4203 26 33.4203C27.0461 33.4203 28.0719 33.4 29.0875 33.3492C28.1531 34.6391 27.1477 35.868 26.0812 37.0461ZM39.3555 40.093C39.2641 41.332 38.6547 42.4898 37.6797 43.2719C36.0648 44.2062 32.6219 42.9875 28.9047 39.7984C28.4781 39.4328 28.0516 39.0367 27.6148 38.6305C29.1687 36.9141 30.6008 35.0961 31.9008 33.1867C34.2266 32.9937 36.5422 32.6383 38.8273 32.1203C38.9289 32.5367 39.0203 32.9531 39.1016 33.3594C39.5992 35.5531 39.6805 37.8383 39.3555 40.093ZM41.2039 29.175C40.9195 29.2664 40.6352 29.3578 40.3406 29.4391C39.6297 27.225 38.7563 25.0617 37.7508 22.9594C38.7258 20.8875 39.5484 18.7547 40.2391 16.5711C40.7672 16.7234 41.275 16.8859 41.7625 17.0484C46.4953 18.6734 49.8164 21.0906 49.8164 22.9391C49.8164 24.9297 46.2719 27.4992 41.2039 29.175ZM26 27.6516C28.5695 27.6516 30.6516 25.5695 30.6516 23C30.6516 20.4305 28.5695 18.3484 26 18.3484C23.4305 18.3484 21.3484 20.4305 21.3484 23C21.3484 25.5695 23.4305 27.6516 26 27.6516Z" fill="black"/>
</svg>
